<svg width="111" height="34" viewBox="0 0 111 34" fill="none" xmlns="http://www.w3.org/2000/svg"><path d="M32.663 8.833 17.795.266a1.894 1.894 0 0 0-1.938 0L.99 8.833C.395 9.188 0 9.82 0 10.53v12.554c0 .71.356 1.342.989 1.697l14.868 8.566c.317.158.633.277.989.277s.672-.08.988-.277l14.869-8.566c.593-.355.988-.987.988-1.697V10.53a2.12 2.12 0 0 0-1.028-1.697Zm-2.451 11.132-5.497-3.158 5.497-3.158v6.316ZM16.846 3.66l11.902 6.87-11.902 6.868L4.903 10.53l11.943-6.869ZM3.44 13.61l5.497 3.158-5.497 3.159V13.61Zm13.406 16.304-11.943-6.87 7.435-4.303 3.48 2.014c.316.157.632.276.988.276s.672-.08.989-.276l3.48-2.014 7.434 4.303-11.863 6.869Zm48.837-18.121c-4.113 0-6.96 2.803-6.96 6.83 0 4.026 2.847 6.83 6.92 6.83 4.113 0 6.96-2.804 6.96-6.83 0-4.027-2.847-6.83-6.92-6.83Zm0 10.54c-2.136 0-3.48-1.46-3.48-3.71s1.384-3.711 3.48-3.711c2.056 0 3.48 1.5 3.48 3.71-.04 2.211-1.424 3.712-3.48 3.712Zm14.591-5.131c-1.621-.237-3.045-.435-3.045-1.54 0-.553.396-1.263 2.215-1.263 1.463 0 2.53.631 2.847 1.737l3.124-.71c-.672-2.37-2.729-3.672-5.773-3.672-3.401 0-5.695 1.579-5.695 3.947 0 3.316 2.927 3.711 5.3 4.067 1.66.236 3.123.434 3.123 1.618 0 .632-.474 1.382-2.728 1.382-1.7 0-2.848-.632-3.203-1.777l-3.124.632c.711 2.447 2.847 3.75 6.248 3.75 3.756 0 6.129-1.579 6.129-4.105.04-3.277-2.966-3.711-5.418-4.066Zm11.982 5.289c-1.028 0-1.621-.71-1.621-1.934v-5.526h5.299v-2.882h-5.3V8.122h-3.44v12.474c0 3.12 1.74 4.896 4.746 4.896 2.61 0 4.31-1.185 4.903-3.395l-2.768-.869c-.316.79-.949 1.263-1.819 1.263Zm15.383-8.684-.119-.158c-.87-1.224-2.293-1.856-4.192-1.856-3.48 0-5.97 2.882-5.97 6.83 0 3.987 2.49 6.869 5.891 6.869 1.898 0 3.322-.672 4.232-1.974l.118-.158v.04l.672 1.736H111V12.188h-2.729l-.632 1.619Zm-3.48 8.527c-2.017 0-3.361-1.461-3.361-3.75 0-2.25 1.305-3.711 3.361-3.711s3.401 1.46 3.401 3.71-1.384 3.75-3.401 3.75Zm-52.673-10.54c-1.819 0-3.203.631-4.112 1.855l-.198.276V8.162h-3.44v16.974h2.728l.712-1.815.119.157c.949 1.343 2.372 2.014 4.23 2.014 3.48 0 5.893-2.803 5.893-6.83-.04-4.065-2.452-6.868-5.932-6.868Zm-.87 10.54c-1.581 0-3.44-.632-3.44-3.75 0-2.29 1.344-3.75 3.48-3.75 1.977 0 3.282 1.5 3.282 3.75-.04 2.25-1.345 3.75-3.322 3.75Z" fill="#E30613"/></svg>