<svg width="112" height="32" viewBox="0 0 112 32" fill="none" xmlns="http://www.w3.org/2000/svg"><path d="M10.095 10.907c.895 0 1.64-.745 1.64-1.64 0-.894-.745-1.639-1.64-1.639-.894 0-1.64.745-1.64 1.64 0 .93.746 1.639 1.64 1.639Zm-3.95 0c.894 0 1.64-.745 1.64-1.64 0-.894-.746-1.639-1.64-1.639-.895 0-1.64.745-1.64 1.64 0 .93.745 1.639 1.64 1.639Zm61.277 9.835h-3.094v-8.42h-5.814c-3.02 0-5.48 2.87-5.48 5.887a5.487 5.487 0 0 0 5.48 5.477h2.832c0 .298-.074.857-.633 1.266-.522.41-1.976.969-4.734.336l-.634 2.794c1.081.26 2.013.335 2.833.335 2.05 0 3.355-.633 4.138-1.267a4.52 4.52 0 0 0 1.714-3.539h6.597V12.248h-3.205v8.494Zm-6.3 0h-2.05c-1.528 0-2.795-1.155-2.795-2.682a2.791 2.791 0 0 1 2.796-2.794h2.05v5.476Zm7.903 4.322c-.895 0-1.64.745-1.64 1.64 0 .894.745 1.639 1.64 1.639.894 0 1.64-.745 1.64-1.64 0-.894-.746-1.639-1.64-1.639Z" fill="#E30613"/><path d="M47.704 18.842c0 1.08-.82 1.9-1.9 1.9-1.082 0-1.715-.82-1.715-1.9v-4.657h-3.243v4.583c0 1.08-.894 1.974-1.975 1.974h-1.119v-6.557H34.51v6.557h-4.026s.075-.111.224-.298c1.379-2.049.782-5.104-.895-6.817-1.23-1.267-3.094-1.863-4.808-1.565-2.46.41-3.578 1.863-5.48 4.508V7.628h-3.242v13.077h-3.094v-8.42H6.033C3.05 12.285.926 14.67.926 18.06c0 3.428 2.386 5.924 5.293 5.924 1.603 0 2.833-.596 3.653-1.714l.074-.112.56 1.49h28.7c1.304 0 2.46-.521 3.317-1.378a4.647 4.647 0 0 0 3.318 1.378c2.572 0 5.106-2.086 5.106-4.657v-6.706h-3.243v6.557Zm-37.758-.745c0 1.9-1.155 3.018-2.907 3.018s-2.87-1.08-2.87-3.018c0-1.937 1.118-2.831 2.87-2.831h2.907v2.831Zm18.264-.037a3.512 3.512 0 0 1-.447 1.118c-.634 1.043-1.864 1.564-3.094 1.564h-5.367s1.305-1.602 2.05-2.459c1.193-1.378 2.423-3.017 4.1-3.315 1.864-.298 3.056 1.453 2.758 3.092Zm82.747-9.724L96.942.251a1.784 1.784 0 0 0-1.826 0L81.101 8.336a1.878 1.878 0 0 0-.932 1.602v11.848c0 .67.336 1.266.932 1.602l14.015 8.084c.298.15.596.261.932.261.335 0 .633-.075.932-.26l14.014-8.085c.56-.336.932-.932.932-1.602V9.938a2 2 0 0 0-.969-1.602Zm-2.311 10.506-5.181-2.98 5.181-2.98v5.96ZM96.01 3.456l11.22 6.482-11.22 6.483-11.219-6.483 11.22-6.482Zm-12.598 9.388 5.181 2.98-5.18 2.981v-5.96ZM96.01 28.231l-11.219-6.483 7.008-4.06 3.28 1.9c.298.148.596.26.931.26.336 0 .634-.074.932-.26l3.28-1.9 7.008 4.06-11.22 6.483Z" fill="#E30613"/></svg>