<svg width="805" height="97" viewBox="0 0 805 97" fill="none" xmlns="http://www.w3.org/2000/svg" class="slide-from-side" style="--from:70%;--to:0;--animationDelay:2s"><path d="M2 95h803" stroke="#667085" stroke-width="3" stroke-linecap="round" stroke-linejoin="round"/><path d="M340.76 1.84H161.436v72.623H354.26V15.34c0-7.456-6.044-13.5-13.5-13.5ZM160.824 20.945h-20.602a18.5 18.5 0 0 0-16.866 10.899l-6.543 14.517a8.497 8.497 0 0 0-.751 3.493v24.61h44.762V20.945Z" fill="#fff" stroke="#667085" stroke-width="3"/><circle r="17.207" transform="matrix(-1 0 0 1 149.985 76.361)" fill="#fff" stroke="#667085" stroke-width="3"/><circle r="6.858" transform="matrix(-1 0 0 1 149.985 76.36)" fill="#fff" stroke="#667085" stroke-width="3"/><circle r="17.207" transform="matrix(-1 0 0 1 251.877 76.361)" fill="#fff" stroke="#667085" stroke-width="3"/><circle r="6.858" transform="matrix(-1 0 0 1 251.877 76.36)" fill="#fff" stroke="#667085" stroke-width="3"/><circle r="17.207" transform="matrix(-1 0 0 1 294.863 76.361)" fill="#fff" stroke="#667085" stroke-width="3"/><circle r="6.858" transform="matrix(-1 0 0 1 294.863 76.36)" fill="#fff" stroke="#667085" stroke-width="3"/><path d="M322.327 5.912h19.861a8 8 0 0 1 8 8v56.479h-27.861V5.912Z" fill="#E4E7EC"/></svg>