<svg width="31" height="76" viewBox="0 0 31 76" fill="none" xmlns="http://www.w3.org/2000/svg" style="--from: 100%; --startDelay: 1s; --opacityFrom: 1;" class="slide-from-bottom isVisible"><path fill-rule="evenodd" clip-rule="evenodd" d="M2 15.4028C2.02523 7.97547 8.0667 1.97492 15.494 2.00008C22.9213 2.02539 28.9218 8.06685 28.8967 15.4941V15.6464C28.8052 20.4744 26.1095 24.9369 22.8045 28.4246C20.9144 30.3874 18.8037 32.125 16.5144 33.6029C15.9023 34.1324 14.9943 34.1324 14.3822 33.6029C10.9694 31.3816 7.97417 28.5771 5.53341 25.3176C3.35801 22.4754 2.12289 19.0256 2 15.4485V15.4028Z" stroke="#E30613" stroke-width="3" stroke-linecap="round" stroke-linejoin="round"></path><path opacity="0.5" d="M15.4483 19.9719C17.8288 19.9719 19.7585 18.0421 19.7585 15.6617C19.7585 13.2813 17.8288 11.3516 15.4483 11.3516C13.0679 11.3516 11.1382 13.2813 11.1382 15.6617C11.1382 18.0421 13.0679 19.9719 15.4483 19.9719Z" stroke="#0098A5" stroke-width="3" stroke-linecap="round" stroke-linejoin="round"></path><path d="M15 37.5L15 75" stroke="#1DBDCD" stroke-width="2" stroke-linecap="round" stroke-dasharray="1 6"></path></svg>