<svg width="1em" height="1em" viewBox="0 0 33 36" fill="currentColor" xmlns="http://www.w3.org/2000/svg" aria-hidden="true" focusable="false" class=""><path d="M30.0053 7.42273L29.4358 8.81041C30.0806 9.07507 30.8228 8.86063 31.2272 8.29284C31.6315 7.72504 31.5914 6.95353 31.1304 6.4307L30.0053 7.42273ZM30.0057 28.5768L31.1308 29.5688C31.5918 29.046 31.6319 28.2745 31.2275 27.7067C30.8232 27.1389 30.081 26.9245 29.4361 27.1892L30.0057 28.5768ZM25.6688 8.07129C27.0051 8.07129 28.2762 8.33446 29.4358 8.81041L30.5749 6.03506C29.06 5.41335 27.4025 5.07129 25.6688 5.07129V8.07129ZM15.7402 17.9999C15.7402 12.5165 20.1854 8.07129 25.6688 8.07129V5.07129C18.5286 5.07129 12.7402 10.8596 12.7402 17.9999H15.7402ZM25.6688 27.9284C20.1854 27.9284 15.7402 23.4833 15.7402 17.9999H12.7402C12.7402 25.1401 18.5286 30.9284 25.6688 30.9284V27.9284ZM29.4361 27.1892C28.2764 27.6652 27.0052 27.9284 25.6688 27.9284V30.9284C27.4027 30.9284 29.0604 30.5863 30.5753 29.9645L29.4361 27.1892ZM28.8806 27.5848C26.2213 30.601 22.3334 32.5 18 32.5V35.5C23.2304 35.5 27.9263 33.2035 31.1308 29.5688L28.8806 27.5848ZM18 32.5C9.99187 32.5 3.5 26.0081 3.5 18H0.5C0.5 27.665 8.33502 35.5 18 35.5V32.5ZM3.5 18C3.5 9.99187 9.99187 3.5 18 3.5V0.5C8.33502 0.5 0.5 8.33502 0.5 18H3.5ZM18 3.5C22.3332 3.5 26.221 5.39884 28.8802 8.41477L31.1304 6.4307C27.9259 2.79628 23.2302 0.5 18 0.5V3.5Z" fill="#E30613"></path><path d="M31.2422 16L26.9995 20.2426" stroke="#80CBD2" stroke-width="3" stroke-linecap="round" stroke-linejoin="round"></path><path d="M27 16L31.2426 20.2426" stroke="#80CBD2" stroke-width="3" stroke-linecap="round" stroke-linejoin="round"></path></svg>