<svg width="33" height="196" viewBox="0 0 33 196" fill="none" xmlns="http://www.w3.org/2000/svg" style="--from:100%;--startDelay:1s;--opacityFrom:1" class="slide-from-bottom isVisible"><path d="m30.005 7.423-.57 1.387a1.5 1.5 0 0 0 1.695-2.38l-1.125.993Zm0 21.154 1.126.992a1.5 1.5 0 0 0-1.695-2.38l.57 1.388ZM25.67 8.07c1.336 0 2.607.263 3.767.74l1.139-2.776a12.896 12.896 0 0 0-4.906-.964v3ZM15.74 18c0-5.483 4.445-9.929 9.929-9.929v-3C18.529 5.071 12.74 10.86 12.74 18h3Zm9.929 9.928c-5.484 0-9.929-4.445-9.929-9.928h-3c0 7.14 5.789 12.928 12.929 12.928v-3Zm3.767-.739c-1.16.476-2.43.74-3.767.74v3c1.734 0 3.391-.343 4.906-.964l-1.139-2.776Zm-.555.396A14.462 14.462 0 0 1 18 32.5v3c5.23 0 9.926-2.297 13.13-5.931l-2.25-1.984ZM18 32.5C9.992 32.5 3.5 26.008 3.5 18h-3c0 9.665 7.835 17.5 17.5 17.5v-3ZM3.5 18C3.5 9.992 9.992 3.5 18 3.5v-3C8.335.5.5 8.335.5 18h3ZM18 3.5a14.46 14.46 0 0 1 10.88 4.915l2.25-1.984A17.461 17.461 0 0 0 18 .5v3Z" fill="#E30613"/><path d="M31.243 16 27 20.243M27 16l4.243 4.243" stroke="#80CBD2" stroke-width="3" stroke-linecap="round" stroke-linejoin="round"/><path d="M17 36.5V195" stroke="#1DBDCD" stroke-width="2" stroke-linecap="round" stroke-dasharray="1 6"/></svg>