<?xml version="1.0" standalone="no"?>
<!DOCTYPE svg PUBLIC "-//W3C//DTD SVG 20010904//EN"
 "http://www.w3.org/TR/2001/REC-SVG-20010904/DTD/svg10.dtd">
<svg version="1.0" xmlns="http://www.w3.org/2000/svg"
 width="256.000000pt" height="256.000000pt" viewBox="0 0 256.000000 256.000000"
 preserveAspectRatio="xMidYMid meet">

<g transform="translate(0.000000,256.000000) scale(0.100000,-0.100000)"
fill="#e2e8f0" stroke="none">
<path d="M832 2534 c-68 -34 -119 -94 -139 -164 -13 -47 -21 -59 -53 -78 -21
-12 -62 -49 -92 -82 l-52 -60 -242 0 c-211 0 -243 -2 -248 -16 -3 -9 -6 -487
-6 -1064 0 -870 2 -1049 14 -1059 10 -8 265 -10 947 -9 l934 3 3 66 c3 72 -10
96 -48 84 -15 -5 -20 -15 -20 -41 l0 -34 -875 0 -875 0 0 1000 0 1000 188 0
c104 0 191 -2 193 -5 3 -2 1 -34 -5 -70 -7 -46 -6 -72 2 -90 l12 -25 487 2
488 3 0 93 0 92 192 0 192 0 3 -146 c3 -127 5 -148 21 -158 12 -8 22 -8 35 0
15 10 17 32 20 179 2 115 -1 172 -9 181 -9 11 -60 14 -255 14 -134 0 -244 4
-244 9 0 17 -81 100 -129 130 -40 26 -50 38 -55 69 -12 78 -88 160 -175 190
-61 21 -151 15 -209 -14z m201 -70 c68 -34 107 -88 107 -146 0 -43 6 -51 59
-77 88 -45 171 -164 171 -246 l0 -25 -421 0 -421 0 7 38 c17 95 86 189 169
231 46 23 48 26 61 103 16 104 168 172 268 122z"/>
<path d="M884 2390 c-47 -24 -84 -81 -84 -131 0 -81 68 -149 149 -149 157 0
210 206 71 278 -54 27 -83 28 -136 2z m116 -80 c26 -26 26 -81 0 -105 -46 -42
-120 -10 -120 52 0 42 30 73 70 73 17 0 39 -9 50 -20z"/>
<path d="M1447 1516 c-197 -106 -363 -199 -368 -207 -5 -8 -9 -154 -9 -325 0
-283 2 -314 18 -332 16 -19 713 -462 727 -462 9 0 661 347 708 376 l37 24 0
354 c0 324 -1 354 -17 368 -20 17 -721 398 -731 398 -4 -1 -168 -88 -365 -194z
m683 -62 c168 -91 306 -167 308 -169 6 -6 -150 -86 -162 -83 -20 5 -616 332
-616 338 0 7 141 79 155 79 6 1 147 -74 315 -165z m-223 -146 l333 -183 0 -96
0 -95 -45 -22 c-25 -12 -48 -22 -50 -22 -2 0 -6 44 -7 97 l-3 98 -290 157
c-159 87 -307 167 -328 179 l-39 21 39 24 c21 13 42 24 47 24 5 0 159 -82 343
-182z m-200 -79 c172 -94 313 -172 313 -174 0 -2 -46 -29 -102 -60 l-101 -57
-42 24 c-350 196 -575 324 -575 329 0 5 176 106 189 108 2 1 145 -76 318 -170z
m6 -318 l57 -33 0 -285 c0 -156 -4 -283 -8 -281 -5 2 -144 89 -310 193 l-301
190 -1 267 0 267 253 -143 c138 -79 278 -158 310 -175z m767 7 l0 -293 -307
-160 c-168 -88 -310 -162 -315 -163 -4 -2 -7 126 -6 284 l3 287 105 58 105 57
5 -96 c7 -127 12 -130 124 -72 131 69 121 53 124 190 l4 119 76 40 c42 22 78
41 80 41 1 0 2 -132 2 -292z"/>
<path d="M253 1690 c-23 -9 -23 -13 -23 -174 0 -153 1 -166 19 -176 11 -5 79
-10 151 -10 72 0 140 5 151 10 18 10 19 23 19 176 l0 164 -26 10 c-32 12 -261
12 -291 0z m237 -170 l0 -100 -90 0 -90 0 0 100 0 100 90 0 90 0 0 -100z"/>
<path d="M663 1550 c-25 -10 -30 -39 -11 -58 9 -9 89 -12 299 -12 158 0 294 3
303 6 22 9 20 51 -3 64 -24 13 -556 13 -588 0z"/>
<path d="M253 1170 c-23 -9 -23 -13 -23 -174 0 -153 1 -166 19 -176 11 -5 79
-10 151 -10 72 0 140 5 151 10 18 10 19 23 19 176 l0 164 -26 10 c-32 12 -261
12 -291 0z m237 -175 l0 -105 -90 0 -90 0 0 105 0 105 90 0 90 0 0 -105z"/>
<path d="M647 1023 c-14 -13 -6 -53 12 -63 11 -6 89 -10 180 -10 148 0 163 2
181 20 16 16 18 25 10 40 -10 19 -22 20 -194 20 -100 0 -186 -3 -189 -7z"/>
<path d="M236 634 c-12 -31 -7 -319 6 -332 17 -17 299 -17 316 0 17 17 17 319
0 336 -8 8 -59 12 -164 12 -129 0 -153 -2 -158 -16z m254 -164 l0 -100 -90 0
-90 0 0 100 0 100 90 0 90 0 0 -100z"/>
<path d="M620 491 c-13 -26 -4 -48 23 -55 12 -3 135 -6 274 -6 215 0 254 2
267 16 9 8 16 21 16 28 0 33 -22 36 -297 36 -259 0 -273 -1 -283 -19z"/>
</g>
</svg>
