<svg width="1em" height="1em" viewBox="0 0 31 36" fill="currentColor" xmlns="http://www.w3.org/2000/svg" aria-hidden="true"><path fill-rule="evenodd" clip-rule="evenodd" d="M2 15.403C2.025 7.975 8.067 1.975 15.494 2c7.427.025 13.428 6.067 13.403 13.494v.152c-.092 4.828-2.787 9.29-6.092 12.779a35.39 35.39 0 0 1-6.29 5.178 1.63 1.63 0 0 1-2.133 0 34.707 34.707 0 0 1-8.849-8.285A17.21 17.21 0 0 1 2 15.448v-.045Z" stroke="#E30613" stroke-width="3" stroke-linecap="round" stroke-linejoin="round"/><path opacity=".5" d="M15.448 19.972a4.31 4.31 0 1 0 0-8.62 4.31 4.31 0 0 0 0 8.62Z" stroke="#0098A5" stroke-width="3" stroke-linecap="round" stroke-linejoin="round"/></svg>