<?xml version="1.0" standalone="no"?>
<!DOCTYPE svg PUBLIC "-//W3C//DTD SVG 20010904//EN"
 "http://www.w3.org/TR/2001/REC-SVG-20010904/DTD/svg10.dtd">
<svg version="1.0" xmlns="http://www.w3.org/2000/svg"
 width="512.000000pt" height="512.000000pt" viewBox="0 0 512.000000 512.000000"
 preserveAspectRatio="xMidYMid meet">

<g transform="translate(0.000000,512.000000) scale(0.100000,-0.100000)"
fill="#fff" stroke="none">
<path d="M1553 4574 c-66 -33 -63 10 -63 -958 l0 -876 -85 0 c-70 0 -375 -33
-517 -56 l-38 -6 0 62 c0 72 -18 113 -58 129 -20 8 -127 11 -380 9 l-352 -3
-27 -28 -28 -27 -3 -940 c-2 -841 -1 -944 14 -971 28 -56 50 -59 409 -59 415
0 416 0 425 139 l5 76 135 -1 c174 0 175 -1 734 -255 563 -256 618 -273 901
-273 206 0 285 17 480 100 109 47 677 330 880 439 33 18 251 131 485 250 234
120 443 231 466 246 224 152 246 474 45 663 -62 57 -132 91 -223 106 l-68 12
0 1082 c0 984 -1 1084 -16 1105 -38 53 34 51 -1586 51 -1344 0 -1506 -2 -1535
-16z m1007 -479 c0 -231 3 -281 16 -306 18 -35 75 -63 107 -53 12 4 110 49
217 101 l195 94 195 -95 c107 -53 207 -98 222 -102 41 -9 95 28 108 74 5 21
10 151 10 300 l0 262 425 0 425 0 -2 -1041 -3 -1041 -390 -200 c-214 -110
-476 -243 -582 -297 l-191 -97 -10 68 c-13 89 -59 186 -112 236 -74 73 -170
123 -750 392 -151 70 -340 158 -419 195 -79 37 -181 79 -227 93 l-84 27 0 833
0 832 425 0 425 0 0 -275z m850 100 c0 -96 -3 -175 -6 -175 -3 0 -64 30 -135
68 -172 88 -176 88 -351 -1 -73 -37 -136 -67 -140 -67 -5 0 -8 79 -8 175 l0
175 320 0 320 0 0 -175z m-2770 -2325 l0 -800 -215 0 -215 0 0 793 c0 437 3
797 7 800 3 4 100 7 215 7 l208 0 0 -800z m922 645 c170 -29 260 -67 959 -400
261 -124 487 -238 502 -253 92 -87 89 -236 -6 -319 -19 -17 -52 -36 -72 -43
-77 -26 -108 -14 -565 204 -239 114 -444 209 -456 212 -38 10 -93 -21 -110
-63 -19 -45 -6 -103 29 -126 51 -33 886 -419 937 -433 128 -33 198 -16 445
114 105 54 465 239 801 410 570 292 614 312 662 312 59 0 115 -20 150 -53 87
-81 87 -234 0 -313 -37 -34 -1628 -850 -1811 -929 -178 -77 -239 -88 -446 -83
-231 7 -250 13 -721 228 -426 195 -554 251 -631 275 -38 12 -103 19 -216 22
l-163 5 0 589 c0 323 3 590 8 592 6 4 347 48 462 60 82 9 163 6 242 -8z"/>
<path d="M3694 2656 c-41 -18 -64 -52 -64 -96 0 -45 23 -78 66 -96 51 -21 463
-20 509 2 31 14 65 64 65 94 0 30 -34 80 -65 94 -45 22 -463 23 -511 2z"/>
</g>
</svg>
