<svg width="1em" height="1em" viewBox="0 0 30 36" fill="currentColor" xmlns="http://www.w3.org/2000/svg" aria-hidden="true" focusable="false" class=""><path fill-rule="evenodd" clip-rule="evenodd" d="M26.7509 6.02127C27.4909 6.28038 27.9854 6.97812 27.9854 7.76222V19.2325C27.9854 22.4383 26.8203 25.4985 24.7627 27.8694C23.7279 29.0634 22.4188 29.9931 21.0284 30.745L15.0029 34L8.96716 30.7434C7.57508 29.9914 6.2643 29.0634 5.22786 27.8677C3.16853 25.4968 2 22.4349 2 19.2257V7.76222C2 6.97812 2.49451 6.28038 3.23458 6.02127L14.3814 2.10415C14.7776 1.96528 15.2095 1.96528 15.6041 2.10415L26.7509 6.02127Z" stroke="#E30613" stroke-width="3" stroke-linecap="round" stroke-linejoin="round"></path><path opacity="0.5" d="M10.5903 17.5269L13.7945 20.7327L20.3958 14.1313" stroke="#0098A5" stroke-width="3" stroke-linecap="round" stroke-linejoin="round"></path></svg>